<svg width="24" height="24" viewBox="0 0 24 24" fill="none" xmlns="http://www.w3.org/2000/svg">
<path d="M19.8445 10.4332H19.2001V10.4H12V13.6H16.5213C15.8617 15.4628 14.0892 16.8001 12 16.8001C9.34922 16.8001 7.20001 14.6508 7.20001 12C7.20001 9.34922 9.34922 7.20001 12 7.20001C13.2236 7.20001 14.3368 7.66162 15.1844 8.41562L17.4473 6.15281C16.0185 4.8212 14.1072 4 12 4C7.58202 4 4 7.58202 4 12C4 16.4181 7.58202 20.0001 12 20.0001C16.4181 20.0001 20.0001 16.4181 20.0001 12C20.0001 11.4636 19.9449 10.94 19.8445 10.4332Z" fill="#FFC107"/>
<path d="M4.92188 8.27642L7.55029 10.204C8.26149 8.44322 9.9839 7.20001 11.9995 7.20001C13.2231 7.20001 14.3363 7.66162 15.1839 8.41562L17.4467 6.15281C16.0179 4.8212 14.1067 4 11.9995 4C8.92669 4 6.26188 5.73481 4.92188 8.27642Z" fill="#FF3D00"/>
<path d="M12 20.0003C14.0664 20.0003 15.944 19.2095 17.3636 17.9235L14.8876 15.8283C14.0844 16.4367 13.086 16.8003 12 16.8003C9.91915 16.8003 8.15234 15.4735 7.48674 13.6219L4.87793 15.6319C6.20194 18.2227 8.89075 20.0003 12 20.0003Z" fill="#4CAF50"/>
<path d="M19.8444 10.4332H19.2V10.4H12V13.6H16.5212C16.2044 14.4948 15.6288 15.2664 14.8864 15.8284C14.8868 15.828 14.8872 15.828 14.8876 15.8276L17.3636 17.9229C17.1884 18.0821 20 16 20 12C20 11.4636 19.9448 10.94 19.8444 10.4332Z" fill="#1976D2"/>
</svg>
