<svg width="16" height="15" viewBox="0 0 16 15" fill="none" xmlns="http://www.w3.org/2000/svg">
<path d="M0.910156 1.52191C1.28255 1.98024 1.69792 2.51019 2.15625 3.11176C2.61458 3.71332 3.07292 4.31488 3.53125 4.91644C4.01823 5.51801 4.44792 6.0766 4.82031 6.59222C5.22135 7.10785 5.53646 7.52321 5.76562 7.83832C6.02344 8.12478 6.15234 8.26801 6.15234 8.26801V13.768C6.15234 14.0258 6.23828 14.255 6.41016 14.4555C6.61068 14.6274 6.83984 14.7133 7.09766 14.7133H8.90234C9.16016 14.7133 9.375 14.6274 9.54688 14.4555C9.7474 14.255 9.84766 14.0258 9.84766 13.768V8.26801C9.84766 8.26801 9.96224 8.12478 10.1914 7.83832C10.4492 7.52321 10.7643 7.10785 11.1367 6.59222C11.5378 6.0766 11.9674 5.51801 12.4258 4.91644C12.9128 4.31488 13.3854 3.71332 13.8438 3.11176C14.3021 2.51019 14.7174 1.98024 15.0898 1.52191C15.2617 1.32139 15.3333 1.10655 15.3047 0.87738C15.276 0.648214 15.1758 0.447693 15.0039 0.275818C14.832 0.103943 14.6172 0.0180054 14.3594 0.0180054H1.64062C1.38281 0.0180054 1.16797 0.103943 0.996094 0.275818C0.824219 0.447693 0.723958 0.648214 0.695312 0.87738C0.666667 1.10655 0.738281 1.32139 0.910156 1.52191Z" fill="#DC9000"/>
</svg>
