<svg width="20" height="24" viewBox="0 0 20 24" fill="none" xmlns="http://www.w3.org/2000/svg">
<path d="M17 16.6484L19.3516 19V20.1484H0.648438V19L3 16.6484V10.8516C3 9.02865 3.45573 7.44271 4.36719 6.09375C5.3151 4.74479 6.60938 3.86979 8.25 3.46875V2.64844C8.25 2.17448 8.41406 1.77344 8.74219 1.44531C9.07031 1.08073 9.48958 0.898438 10 0.898438C10.5104 0.898438 10.9297 1.08073 11.2578 1.44531C11.5859 1.77344 11.75 2.17448 11.75 2.64844V3.46875C13.3906 3.86979 14.6667 4.74479 15.5781 6.09375C16.526 7.44271 17 9.02865 17 10.8516V16.6484ZM10 23.6484C9.34375 23.6484 8.77865 23.4297 8.30469 22.9922C7.86719 22.5547 7.64844 22.0078 7.64844 21.3516H12.3516C12.3516 21.9714 12.1146 22.5182 11.6406 22.9922C11.1667 23.4297 10.6198 23.6484 10 23.6484Z" fill="white"/>
</svg>
