<svg width="24" height="24" viewBox="0 0 24 24" fill="none" xmlns="http://www.w3.org/2000/svg">
<path d="M17.2109 19.7109C17.6849 19.237 18.2318 19 18.8516 19C19.4714 19 20 19.237 20.4375 19.7109C20.9115 20.1849 21.1484 20.7318 21.1484 21.3516C21.1484 21.9714 20.9115 22.5182 20.4375 22.9922C20 23.4297 19.4714 23.6484 18.8516 23.6484C18.2318 23.6484 17.6849 23.4297 17.2109 22.9922C16.737 22.5182 16.5 21.9714 16.5 21.3516C16.5 20.7318 16.737 20.1849 17.2109 19.7109ZM0.148438 0.351562H3.97656L5.07031 2.64844H22.3516C22.6797 2.64844 22.9531 2.77604 23.1719 3.03125C23.3906 3.25 23.5 3.52344 23.5 3.85156C23.5 3.88802 23.4453 4.07031 23.3359 4.39844L19.1797 11.9453C18.7422 12.7474 18.0677 13.1484 17.1562 13.1484H8.46094L7.42188 15.0625L7.36719 15.2266C7.36719 15.4089 7.45833 15.5 7.64062 15.5H21.1484V17.8516H7.14844C6.52865 17.8516 5.98177 17.6146 5.50781 17.1406C5.07031 16.6667 4.85156 16.1198 4.85156 15.5C4.85156 15.1354 4.94271 14.7708 5.125 14.4062L6.71094 11.5078L2.5 2.64844H0.148438V0.351562ZM5.50781 19.7109C5.98177 19.237 6.52865 19 7.14844 19C7.76823 19 8.3151 19.237 8.78906 19.7109C9.26302 20.1849 9.5 20.7318 9.5 21.3516C9.5 21.9714 9.26302 22.5182 8.78906 22.9922C8.3151 23.4297 7.76823 23.6484 7.14844 23.6484C6.52865 23.6484 5.98177 23.4297 5.50781 22.9922C5.07031 22.5182 4.85156 21.9714 4.85156 21.3516C4.85156 20.7318 5.07031 20.1849 5.50781 19.7109Z" fill="white"/>
</svg>
